#!OML:ASF I:\salsa\salsa 7_09\Patient 1\Session 1\dancermale.ASF
:FULLY-SPECIFIED
:DEGREES
1374
root 0.523411 16.9252 -1.57853 -22.5428 75.7442 692.556
lowerback -2.90481 -1.80941 4.63799
upperback -0.671583 -2.54387 1.3125
thorax 0.794948 -1.2557 -1.33506
lowerneck -4.44084 5.70236 4.12766
upperneck 10.1166 7.81321 -3.79669
head 4.5115 3.86931 -1.58454
rclavicle 5.80141e-014 -5.56597e-015
rhumerus -46.9309 8.59888 -100.469
rradius 85.08
rwrist 6.23428
rhand -45.2497 3.52368
rfingers 7.12502
rthumb -18.0239 -25.6612
lclavicle 5.80141e-014 -5.56597e-015
lhumerus -15.5589 0.898902 87.605
lradius 79.0239
lwrist 53.5171
lhand -20.5481 49.5164
lfingers 7.12502
lthumb 5.81067 -1000.58
rfemur -14.6121 -1.38063 30.5584
rtibia 31.4995
rfoot -21.5964 -11.3182
rtoes 3.74948
lfemur -43.3601 11.3275 -12.5064
ltibia 60.108
lfoot -4.82694 5.65039
ltoes 11.6087
1375
root 0.606281 16.9295 -1.50416 -24.2598 76.4585 690.887
lowerback -2.86496 -1.88297 4.43038
upperback -0.684989 -2.63305 1.43146
thorax 0.768859 -1.30078 -1.09857
lowerneck -4.45914 5.50323 4.10381
upperneck 9.9832 7.53693 -3.7826
head 4.45116 3.73238 -1.59331
rclavicle 2.56743e-014 8.34896e-015
rhumerus -46.9417 8.80618 -101.329
rradius 85.0937
rwrist 6.40393
rhand -45.1485 3.73897
rfingers 7.12502
rthumb -17.9265 -25.4548
lclavicle 2.56743e-014 8.34896e-015
lhumerus -14.9554 1.09553 86.6147
lradius 79.2125
lwrist 52.9462
lhand -20.5538 49.4771
lfingers 7.12502
lthumb 5.80512 -1000.62
rfemur -13.8564 -1.50507 30.8384
rtibia 30.9284
rfoot -21.8281 -11.9656
rtoes 4.4216
lfemur -43.6534 11.9903 -12.9729
ltibia 56.833
lfoot -3.89094 4.95425
ltoes 13.2499
1376
root 0.683593 16.9286 -1.45088 -24.4865 76.5503 690.532
lowerback -2.78984 -1.68771 4.43991
upperback -0.823304 -2.36202 1.48875
thorax 0.60042 -1.16961 -1.03188
lowerneck -4.47421 5.25675 3.97392
upperneck 9.97937 7.19855 -3.63791
head 4.422 3.56715 -1.54135
rclavicle -1.9661e-014 -4.53229e-014
rhumerus -47.1483 9.01377 -102.192
rradius 85.1359
rwrist 6.54186
rhand -45.0198 3.55274
rfingers 7.12502
rthumb -17.8027 -25.6524
lclavicle -1.9661e-014 -4.53229e-014
lhumerus -14.2348 1.22891 85.8328
lradius 79.2258
lwrist 52.0996
lhand -20.1922 49.6702
lfingers 7.12502
lthumb 6.15429 -1000.44
rfemur -13.6269 -1.41694 31.0318
rtibia 30.8387
rfoot -22.1163 -12.0834
rtoes 4.87895
lfemur -43.8857 13.0399 -13.4472
ltibia 53.4228
lfoot -2.94692 4.38821
ltoes 17.2923
1377
root 0.769519 16.9351 -1.40602 -24.5304 77.1459 690.282
lowerback -2.9186 -1.60845 4.25819
upperback -0.952878 -2.25319 1.45511
thorax 0.55057 -1.1176 -0.963891
lowerneck -4.6713 4.98824 3.90169
upperneck 10.1389 6.83074 -3.53568
head 4.49367 3.38553 -1.51035
rclavicle -4.78388e-014 -1.19271e-015
rhumerus -47.3397 9.29327 -103.051
rradius 85.0686
rwrist 6.50799
rhand -44.9048 3.49445
rfingers 7.12502
rthumb -17.692 -25.7207
lclavicle -4.78388e-014 -1.19271e-015
lhumerus -13.3513 1.25717 85.243
lradius 79.0719
lwrist 51.1658
lhand -19.7394 49.7963
lfingers 7.12502
lthumb 6.59136 -1000.33
rfemur -13.3978 -1.67287 30.8853
rtibia 30.6088
rfoot -22.3105 -12.4158
rtoes 5.28669
lfemur -43.9296 13.4781 -14.1988
ltibia 49.8761
lfoot -1.64494 3.12332
ltoes 16.8594
1378
root 0.864107 16.9436 -1.37462 -24.9499 77.8542 689.824
lowerback -2.95017 -1.53559 4.22075
upperback -1.00728 -2.15458 1.36183
thorax 0.514854 -1.06998 -1.03575
lowerneck -4.93871 4.70971 3.79448
upperneck 10.6656 6.4755 -3.57214
head 4.23813 3.18797 -1.36513
rclavicle -2.48978e-014 1.17283e-014
rhumerus -47.4922 9.58635 -103.9
rradius 84.8326
rwrist 6.35082
rhand -44.7455 3.66717
rfingers 7.12502
rthumb -17.5387 -25.5617
lclavicle -2.48978e-014 1.17283e-014
lhumerus -12.3664 1.21159 84.8382
lradius 78.8071
lwrist 50.472
lhand -19.4501 49.7344
lfingers 7.12502
lthumb 6.8707 -1000.4
rfemur -12.9591 -2.03679 30.6355
rtibia 30.3675
rfoot -22.4858 -12.7333
rtoes 5.34771
lfemur -43.5347 13.6056 -14.9215
ltibia 46.4252
lfoot 0.203739 2.86471
ltoes 19.3928
1379
root 0.964412 16.9496 -1.34296 -25.5368 78.4766 689.318
lowerback -2.82861 -1.39964 4.25334
upperback -1.09721 -1.96389 1.23752
thorax 0.358146 -0.979255 -1.17077
lowerneck -5.04652 4.3957 3.84839
upperneck 10.873 6.04742 -3.52853
head 4.30329 2.98073 -1.38056
rclavicle 1.54058e-014 2.0276e-014
rhumerus -47.8689 9.77688 -104.772
rradius 84.5576
rwrist 6.22791
rhand -44.5864 3.92454
rfingers 7.12502
rthumb -17.3856 -25.3179
lclavicle 1.54058e-014 2.0276e-014
lhumerus -11.4475 1.14285 84.6455
lradius 78.4456
lwrist 50.2697
lhand -19.255 49.606
lfingers 7.12502
lthumb 7.05899 -1000.53
rfemur -12.3328 -2.14655 30.4505
rtibia 30.1008
rfoot -22.713 -13.1277
rtoes 5.18634
lfemur -42.8404 13.7615 -15.5215
ltibia 43.3526
lfoot 1.97566 3.14857
ltoes 21.9571
1380
root 1.06725 16.9564 -1.31816 -26.6896 79.23 688.213
lowerback -2.69219 -1.30437 4.41549
upperback -1.26155 -1.82642 1.07568
thorax 0.109287 -0.918319 -1.41708
lowerneck -4.84487 4.14879 3.87467
upperneck 10.4862 5.67445 -3.21556
head 4.5875 2.83007 -1.46147
rclavicle -1.90523e-014 2.0276e-014
rhumerus -48.3678 9.99549 -105.653
rradius 84.2299
rwrist 6.23208
rhand -44.2332 3.94818
rfingers 7.12502
rthumb -17.0457 -25.324
lclavicle -1.90523e-014 2.0276e-014
lhumerus -10.5725 1.15196 84.652
lradius 77.9569
lwrist 50.5597
lhand -18.9772 49.444
lfingers 7.12502
lthumb 7.32714 -1000.7
rfemur -11.7579 -2.27147 30.2924
rtibia 29.8677
rfoot -22.9275 -13.7025
rtoes 4.84903
lfemur -42.2859 13.8152 -16.257
ltibia 40.8671
lfoot 3.77766 2.79324
ltoes 17.2461
1381
root 1.17697 16.9608 -1.2992 -28.3349 80.0352 686.58
lowerback -2.74021 -1.26877 4.60484
upperback -1.36821 -1.78141 0.943355
thorax 0.0186414 -0.900204 -1.65689
lowerneck -4.86318 3.82771 4.0959
upperneck 10.9533 5.27519 -3.56462
head 4.27491 2.61272 -1.47923
rclavicle 1.6729e-014 5.36719e-015
rhumerus -48.702 10.3865 -106.466
rradius 83.7576
rwrist 6.31951
rhand -43.8339 3.79829
rfingers 7.12502
rthumb -16.6613 -25.5066
lclavicle 1.6729e-014 5.36719e-015
lhumerus -9.53161 1.25704 84.8018
lradius 77.3303
lwrist 51.1281
lhand -18.7516 49.4962
lfingers 7.12502
lthumb 7.54488 -1000.66
rfemur -11.2778 -2.44143 30.1491
rtibia 29.7687
rfoot -23.1596 -14.3658
rtoes 4.1881
lfemur -41.6277 13.0992 -16.511
ltibia 39.0231
lfoot 5.16528 3.4464
ltoes 18.1807
1382
root 1.29407 16.9608 -1.2869 -29.5316 80.8755 685.505
lowerback -3.06561 -1.30196 4.458
upperback -1.20096 -1.84758 0.933092
thorax 0.373202 -0.923642 -1.59863
lowerneck -5.17722 3.60869 3.80013
upperneck 11.0309 4.98452 -3.46338
head 4.32961 2.45876 -1.41055
rclavicle -1.05915e-015 9.14409e-015
rhumerus -48.7076 11.1795 -107.072
rradius 83.1699
rwrist 6.25638
rhand -43.8757 4.14134
rfingers 7.12502
rthumb -16.7015 -25.1602
lclavicle -1.05915e-015 9.14409e-015
lhumerus -8.11648 1.60795 85.2538
lradius 76.6228
lwrist 51.5254
lhand -18.6793 49.7661
lfingers 7.12502
lthumb 7.61467 -1000.39
rfemur -10.7707 -2.64206 29.8133
rtibia 29.8662
rfoot -23.4955 -14.9758
rtoes 3.6183
lfemur -40.6371 12.0899 -16.7916
ltibia 37.5398
lfoot 5.9147 3.93066
ltoes 18.284
1383
root 1.41433 16.9593 -1.28234 -30.4705 81.777 684.804
lowerback -3.33782 -1.37098 4.17691
upperback -0.993145 -1.95496 0.926385
thorax 0.742281 -0.967755 -1.4632
lowerneck -5.60729 3.43268 3.73749
upperneck 11.3248 4.77162 -3.65475
head 4.48628 2.33596 -1.46169
rclavicle 3.18708e-014 -7.55382e-015
rhumerus -48.8164 12.0596 -107.613
rradius 82.7097
rwrist 6.14543
rhand -43.9356 4.60712
rfingers 7.12502
rthumb -16.7592 -24.6895
lclavicle 3.18708e-014 -7.55382e-015
lhumerus -6.85054 2.04699 85.9632
lradius 75.8485
lwrist 51.4627
lhand -18.6886 49.9453
lfingers 7.12502
lthumb 7.60574 -1000.21
rfemur -10.2834 -3.0228 29.305
rtibia 30.2638
rfoot -23.8695 -15.533
rtoes 3.11827
lfemur -39.2679 10.8654 -17.1039
ltibia 36.5141
lfoot 4.52849 3.26517
ltoes 15.2605
1384
root 1.5413 16.9561 -1.28082 -30.7011 82.5555 684.809
lowerback -3.23108 -1.31843 4.11724
upperback -1.1722 -1.87028 0.713636
thorax 0.498031 -0.933005 -1.63927
lowerneck -5.64808 3.18941 3.88812
upperneck 11.8832 4.46081 -3.70581
head 4.65648 2.18927 -1.51658
rclavicle -1.91796e-015 -4.77083e-015
rhumerus -49.5397 12.3963 -108.353
rradius 82.4389
rwrist 6.06643
rhand -43.7528 4.86066
rfingers 7.12502
rthumb -16.5832 -24.4508
lclavicle -1.91796e-015 -4.77083e-015
lhumerus -6.21321 2.13476 86.7267
lradius 74.8872
lwrist 51.2805
lhand -19.0138 49.9463
lfingers 7.12502
lthumb 7.29183 -1000.2
rfemur -9.95036 -3.4952 28.7485
rtibia 31.0304
rfoot -24.1505 -16.0287
rtoes 2.54244
lfemur -37.8433 9.7674 -17.4406
ltibia 36.0372
lfoot 2.74917 3.15513
ltoes 7.82193
1385
root 1.67676 16.9489 -1.2816 -30.0765 83.123 685.603
lowerback -3.18545 -1.16548 4.14173
upperback -1.44241 -1.65408 0.465049
thorax 0.199168 -0.834768 -1.89602
lowerneck -5.46593 2.91527 3.90037
upperneck 12.3335 4.09531 -3.50617
head 4.74558 2.02824 -1.47985
rclavicle 2.48558e-015 7.55382e-015
rhumerus -50.3296 12.5127 -109.039
rradius 82.1641
rwrist 6.01926
rhand -43.662 5.04595
rfingers 7.12502
rthumb -16.4958 -24.2728
lclavicle 2.48558e-015 7.55382e-015
lhumerus -5.57439 2.11098 87.6527
lradius 73.7632
lwrist 51.366
lhand -21.3651 50.4928
lfingers 7.12502
lthumb 5.02179 -999.587
rfemur -9.85032 -4.02695 28.2331
rtibia 32.1722
rfoot -24.2126 -16.4862
rtoes 1.50752
lfemur -36.3293 8.50577 -17.4478
ltibia 34.9568
lfoot 0.907019 3.24698
ltoes 2.11449
1386
root 1.80768 16.9422 -1.28823 -28.9964 83.6871 686.872
lowerback -3.256 -1.053 4.05075
upperback -1.5305 -1.50174 0.279018
thorax 0.155121 -0.761012 -2.03211
lowerneck -5.28476 2.67696 4.09539
upperneck 12.3291 3.78646 -3.69404
head 4.70858 1.87822 -1.59094
rclavicle 7.56624e-015 -1.0138e-014
rhumerus -50.7814 12.6873 -109.512
rradius 81.8279
rwrist 6.20388
rhand -43.6163 5.18118
rfingers 7.12502
rthumb -16.4518 -24.1412
lclavicle 7.56624e-015 -1.0138e-014
lhumerus -4.6743 2.26665 88.7466
lradius 72.6556
lwrist 51.646
lhand -22.1278 50.781
lfingers 7.12502
lthumb 4.28539 -999.282
rfemur -9.94462 -4.62299 27.655
rtibia 33.6503
rfoot -24.0301 -16.9523
rtoes 0.109095
lfemur -34.7343 7.3943 -17.594
ltibia 33.5154
lfoot -0.972409 2.73613
ltoes -5.8752
